# xmcd
#
# Track frame offsets: 
#        150
#        10843
#        20849
#        31841
#        44450
#        55951
#        66047
#        76151
#        87604
#        100449
#        112112
#        124754
#        138080
#        146891
#        156749
#
# Disc length: 2231 seconds
#
# Revision: 0
# Processed by: cddbd v1.5.2PL0 Copyright (c) Steve Scherf et al.
# Submitted via: ExactAudioCopy v0.99pb5
#
DISCID=d708b50f
DTITLE=Various Artist - Formidable Rhythm and Blues [CD3 - Rapide)
DYEAR=2008
DGENRE=R&B
TTITLE0=Aretha Franklin - Respect
TTITLE1=Clarence Carter - Looking For A Fox
TTITLE2=Wilson Pickett - New Orleans
TTITLE3=Sam and Dave - You Got Me Hummin'
TTITLE4=Otis Redding - She Put The Hurt On Me
TTITLE5=Ben E. King - What Is Soul
TTITLE6=Esther Phillips - Cheater Man
TTITLE7=The Drifters - Baby What I Mean
TTITLE8=Joe Turner - Corrine Corrina
TTITLE9=Mark Holder and The Positives - Whatever's Fair
TTITLE10=Noble Knights - Sing A Simple Song
TTITLE11=Otis Clay - She's About A Mover
TTITLE12=Rasputin's Stash - Your Love Is Certified
TTITLE13=Lou Johnson - Rock Me Baby
TTITLE14=Solomon Burke - Save It
EXTD=
EXTT0=
EXTT1=
EXTT2=
EXTT3=
EXTT4=
EXTT5=
EXTT6=
EXTT7=
EXTT8=
EXTT9=
EXTT10=
EXTT11=
EXTT12=
EXTT13=
EXTT14=
PLAYORDER=
